<svg xmlns="http://www.w3.org/2000/svg" xmlns:xlink="http://www.w3.org/1999/xlink" width="1920" zoomAndPan="magnify" viewBox="0 0 1440 809.999993" height="1080" preserveAspectRatio="xMidYMid meet" version="1.0"><defs><clipPath id="a29def4698"><path d="M 538.488281 243 L 901.488281 243 L 901.488281 560 L 538.488281 560 Z M 538.488281 243 " clip-rule="nonzero"/></clipPath></defs><rect x="-144" width="1728" fill="#ffffff" y="-80.999999" height="971.999992" fill-opacity="1"/><rect x="-144" width="1728" fill="#ffffff" y="-80.999999" height="971.999992" fill-opacity="1"/><g clip-path="url(#a29def4698)"><path fill="#000000" d="M 895.96875 419.070312 C 899.007812 419.070312 901.46875 421.535156 901.46875 424.570312 C 901.46875 427.609375 899.007812 430.070312 895.96875 430.070312 L 879.8125 430.070312 C 876.777344 430.070312 874.3125 427.609375 874.3125 424.570312 C 874.3125 421.535156 876.777344 419.070312 879.8125 419.070312 Z M 607.886719 554.035156 L 607.886719 470 C 607.886719 467.226562 605.597656 464.9375 602.828125 464.9375 L 578.109375 464.9375 C 575.339844 464.9375 573.050781 467.226562 573.050781 470 L 573.050781 554.035156 C 573.050781 556.804688 575.339844 559.09375 578.109375 559.09375 L 602.828125 559.09375 C 605.597656 559.09375 607.886719 556.804688 607.886719 554.035156 Z M 741.664062 478.328125 L 682.082031 478.328125 L 682.082031 478.320312 C 681.617188 478.320312 681.140625 478.261719 680.664062 478.132812 C 658.523438 472.214844 641.203125 471.496094 619.550781 473.488281 C 619.171875 473.519531 618.886719 473.835938 618.886719 474.21875 L 618.886719 544.144531 C 618.886719 544.53125 619.179688 544.847656 619.566406 544.875 C 623.550781 545.171875 627.636719 545.503906 631.878906 545.886719 C 675.765625 549.820312 717.113281 566.980469 759.566406 549.972656 C 768.824219 546.265625 777.792969 541.375 788.902344 534.964844 L 788.90625 534.972656 L 871.996094 476.910156 C 872 476.90625 872.003906 476.90625 872.011719 476.902344 C 872.101562 476.84375 872.191406 476.785156 872.285156 476.730469 C 881.390625 471.472656 879.859375 457.527344 869.386719 454.722656 C 866.390625 453.917969 863.105469 454.242188 860.25 455.890625 L 788.425781 497.359375 C 788.269531 497.453125 787.277344 498.046875 786.03125 498.785156 C 783.691406 500.175781 744.527344 514.695312 741.664062 514.695312 L 682.085938 514.695312 C 679.046875 514.695312 676.585938 512.234375 676.585938 509.195312 C 676.585938 506.160156 679.046875 503.695312 682.085938 503.695312 L 741.664062 503.695312 C 752.894531 503.695312 758.640625 490.082031 750.621094 482.058594 C 748.316406 479.753906 745.148438 478.328125 741.664062 478.328125 Z M 794.4375 360.902344 C 794.4375 356.117188 790.503906 352.179688 785.71875 352.179688 L 654.257812 352.179688 C 649.472656 352.179688 645.539062 356.117188 645.539062 360.902344 L 645.539062 371.210938 C 645.539062 371.488281 645.679688 371.726562 645.925781 371.859375 L 709.699219 406.027344 C 716.324219 409.574219 723.652344 409.574219 730.273438 406.027344 L 794.050781 371.859375 C 794.296875 371.726562 794.4375 371.488281 794.4375 371.210938 Z M 758.058594 340.449219 L 758.058594 328.4375 C 758.058594 319.148438 750.480469 311.570312 741.191406 311.570312 L 698.785156 311.570312 C 689.496094 311.570312 681.914062 319.148438 681.914062 328.4375 L 681.914062 340.449219 C 681.914062 340.851562 682.246094 341.183594 682.648438 341.183594 L 692.179688 341.183594 C 692.585938 341.183594 692.914062 340.851562 692.914062 340.449219 L 692.914062 328.4375 C 692.914062 325.222656 695.566406 322.570312 698.78125 322.570312 L 741.191406 322.570312 C 744.40625 322.570312 747.058594 325.222656 747.058594 328.4375 L 747.058594 340.449219 C 747.058594 340.851562 747.386719 341.183594 747.792969 341.183594 L 757.324219 341.183594 C 757.730469 341.183594 758.058594 340.851562 758.058594 340.449219 Z M 793.359375 384.660156 C 793.589844 384.535156 793.851562 384.539062 794.082031 384.675781 C 794.308594 384.8125 794.4375 385.039062 794.4375 385.304688 L 794.4375 444.992188 C 794.4375 449.777344 790.503906 453.710938 785.71875 453.710938 L 654.257812 453.710938 C 649.472656 453.710938 645.539062 449.777344 645.539062 444.992188 L 645.539062 385.304688 C 645.539062 385.039062 645.667969 384.8125 645.894531 384.675781 C 646.121094 384.539062 646.382812 384.535156 646.617188 384.660156 L 704.542969 415.695312 C 714.484375 421.019531 725.492188 421.019531 735.429688 415.695312 Z M 544.003906 430.070312 C 540.96875 430.070312 538.503906 427.609375 538.503906 424.570312 C 538.503906 421.535156 540.96875 419.070312 544.003906 419.070312 L 560.160156 419.070312 C 563.199219 419.070312 565.660156 421.535156 565.660156 424.570312 C 565.660156 427.609375 563.199219 430.070312 560.160156 430.070312 Z M 564.851562 341.320312 C 562.230469 339.816406 561.328125 336.46875 562.835938 333.84375 C 564.339844 331.222656 567.6875 330.320312 570.308594 331.824219 L 584.300781 339.902344 C 586.925781 341.410156 587.828125 344.757812 586.320312 347.378906 C 584.816406 350.003906 581.46875 350.90625 578.84375 349.398438 Z M 627.246094 274.90625 C 625.730469 272.285156 626.625 268.925781 629.246094 267.40625 C 631.867188 265.890625 635.226562 266.785156 636.742188 269.40625 L 644.820312 283.398438 C 646.339844 286.019531 645.445312 289.378906 642.824219 290.898438 C 640.203125 292.414062 636.84375 291.519531 635.324219 288.898438 Z M 714.488281 248.578125 C 714.488281 245.539062 716.949219 243.078125 719.988281 243.078125 C 723.023438 243.078125 725.488281 245.539062 725.488281 248.578125 L 725.488281 264.734375 C 725.488281 267.773438 723.023438 270.234375 719.988281 270.234375 C 716.949219 270.234375 714.488281 267.773438 714.488281 264.734375 Z M 803.230469 269.40625 C 804.75 266.785156 808.105469 265.886719 810.730469 267.40625 C 813.351562 268.925781 814.246094 272.28125 812.726562 274.90625 L 804.648438 288.898438 C 803.128906 291.519531 799.773438 292.414062 797.152344 290.894531 C 794.53125 289.378906 793.636719 286.019531 795.152344 283.398438 Z M 869.664062 331.824219 C 872.285156 330.320312 875.632812 331.222656 877.140625 333.84375 C 878.648438 336.464844 877.746094 339.8125 875.121094 341.320312 L 861.128906 349.398438 C 858.507812 350.90625 855.160156 350.003906 853.652344 347.378906 C 852.148438 344.757812 853.050781 341.410156 855.671875 339.902344 Z M 869.664062 331.824219 " fill-opacity="1" fill-rule="evenodd"/></g></svg>
